<?xml version="1.0" encoding="UTF-8"?>
<!DOCTYPE svg PUBLIC "-//W3C//DTD SVG 1.1//EN" "http://www.w3.org/Graphics/SVG/1.1/DTD/svg11.dtd">
<svg xmlns="http://www.w3.org/2000/svg" version="1.1" width="512px" height="512px" style="shape-rendering:geometricPrecision; text-rendering:geometricPrecision; image-rendering:optimizeQuality; fill-rule:evenodd; clip-rule:evenodd" xmlns:xlink="http://www.w3.org/1999/xlink">
<g><path style="opacity:1" fill="#f57d06" d="M 233.5,-0.5 C 248.167,-0.5 262.833,-0.5 277.5,-0.5C 290.512,1.05914 303.512,3.39247 316.5,6.5C 320.765,89.5953 303.598,167.929 265,241.5C 262.392,246.397 259.559,251.063 256.5,255.5C 256.85,203.75 247.016,154.083 227,106.5C 217.172,84.4781 203.672,65.1448 186.5,48.5C 185.167,46.5 183.5,44.8333 181.5,43.5C 172.342,35.0079 162.342,27.6745 151.5,21.5C 177.674,9.79 205.008,2.45667 233.5,-0.5 Z"/></g>
<g><path style="opacity:0.998" fill="#f2b62d" d="M 316.5,6.5 C 348.265,14.222 377.265,27.5553 403.5,46.5C 410.185,59.2051 416.352,72.2051 422,85.5C 422.494,87.1341 422.66,88.8008 422.5,90.5C 414.863,118.453 401.53,143.12 382.5,164.5C 377.928,153.975 373.428,143.308 369,132.5C 365.743,129.572 361.909,128.738 357.5,130C 340.373,156.415 323.873,183.249 308,210.5C 307.422,215.689 309.589,219.022 314.5,220.5C 315.263,221.268 316.263,221.768 317.5,222C 299.123,233.866 280.123,244.699 260.5,254.5C 307.288,259.263 353.621,256.43 399.5,246C 411.126,242.677 422.792,239.51 434.5,236.5C 435.097,236.735 435.43,237.235 435.5,238C 430.178,258.133 423.178,277.633 414.5,296.5C 396.081,303.818 377.081,305.984 357.5,303C 350.759,301.379 344.593,298.546 339,294.5C 340.164,308.542 337.164,321.542 330,333.5C 326.258,337.747 322.092,341.414 317.5,344.5C 313.881,341.548 310.548,338.215 307.5,334.5C 305.116,320.986 302.449,307.653 299.5,294.5C 293.021,293.509 286.354,293.176 279.5,293.5C 273.011,281.189 266.511,268.856 260,256.5C 258.135,268.765 257.302,281.098 257.5,293.5C 252.706,292.903 248.373,293.57 244.5,295.5C 241.927,312.842 239.261,330.176 236.5,347.5C 225.403,341.405 217.07,332.738 211.5,321.5C 224.244,298.535 239.577,277.368 257.5,258C 257.272,257.601 256.938,257.435 256.5,257.5C 256.5,256.833 256.5,256.167 256.5,255.5C 259.559,251.063 262.392,246.397 265,241.5C 303.598,167.929 320.765,89.5953 316.5,6.5 Z"/></g>
<g><path style="opacity:0.998" fill="#f2b62e" d="M 151.5,21.5 C 162.342,27.6745 172.342,35.0079 181.5,43.5C 169.182,39.3232 161.515,43.4898 158.5,56C 160.651,69.5797 168.317,74.2464 181.5,70C 188.672,64.0549 190.339,56.8882 186.5,48.5C 203.672,65.1448 217.172,84.4781 227,106.5C 247.016,154.083 256.85,203.75 256.5,255.5C 256.5,256.167 256.5,256.833 256.5,257.5C 220.113,268.696 186.113,284.696 154.5,305.5C 135.26,306.319 116.927,302.652 99.5,294.5C 99.1667,294.833 98.8333,295.167 98.5,295.5C 105.349,306.543 112.683,317.21 120.5,327.5C 120.141,329.371 119.141,330.871 117.5,332C 98.0683,346.931 80.4016,363.764 64.5,382.5C 64.1667,382.5 63.8333,382.5 63.5,382.5C 49.6815,375.758 36.0149,368.758 22.5,361.5C 14.8754,346.299 9.2087,330.299 5.5,313.5C 33.4386,283.185 67.7719,263.685 108.5,255C 144.246,248.366 180.246,246.699 216.5,250C 228.815,251.808 241.148,253.141 253.5,254C 239.917,241.215 225.25,229.882 209.5,220C 208.262,219.31 208.262,218.81 209.5,218.5C 215.031,220.186 220.697,220.686 226.5,220C 230.035,217.293 231.202,213.793 230,209.5C 214.292,183.25 198.459,157.084 182.5,131C 177.228,128.382 172.728,129.215 169,133.5C 161.877,150.743 155.043,168.076 148.5,185.5C 124.23,174.966 99.2303,166.632 73.5,160.5C 73.5,160.167 73.5,159.833 73.5,159.5C 90.512,127.649 114.345,101.982 145,82.5C 151.336,70.8396 148.502,62.3396 136.5,57C 130.732,55.7754 125.399,56.7754 120.5,60C 85.0083,83.3164 58.3417,114.15 40.5,152.5C 34.1482,151.979 27.8149,151.313 21.5,150.5C 48.9128,91.4204 92.2461,48.4204 151.5,21.5 Z"/></g>
<g><path style="opacity:1" fill="#f7d688" d="M 181.5,43.5 C 183.5,44.8333 185.167,46.5 186.5,48.5C 190.339,56.8882 188.672,64.0549 181.5,70C 168.317,74.2464 160.651,69.5797 158.5,56C 161.515,43.4898 169.182,39.3232 181.5,43.5 Z"/></g>
<g><path style="opacity:0.983" fill="#f29822" d="M 403.5,46.5 C 406.947,48.3967 410.28,50.5633 413.5,53C 418.695,57.3656 423.695,61.8656 428.5,66.5C 426.112,74.0907 424.445,82.0907 423.5,90.5C 423.167,90.5 422.833,90.5 422.5,90.5C 422.66,88.8008 422.494,87.1341 422,85.5C 416.352,72.2051 410.185,59.2051 403.5,46.5 Z"/></g>
<g><path style="opacity:1" fill="#f7d689" d="M 73.5,159.5 C 62.6064,156.988 51.6064,154.988 40.5,153.5C 40.5,153.167 40.5,152.833 40.5,152.5C 58.3417,114.15 85.0083,83.3164 120.5,60C 125.399,56.7754 130.732,55.7754 136.5,57C 148.502,62.3396 151.336,70.8396 145,82.5C 114.345,101.982 90.512,127.649 73.5,159.5 Z"/></g>
<g><path style="opacity:1" fill="#f47107" d="M 428.5,66.5 C 469.548,104.241 495.882,150.574 507.5,205.5C 485.336,217.08 462.336,226.747 438.5,234.5C 437.503,234.53 436.836,234.03 436.5,233C 446.457,184.08 442.124,136.58 423.5,90.5C 424.445,82.0907 426.112,74.0907 428.5,66.5 Z"/></g>
<g><path style="opacity:1" fill="#f57d06" d="M 422.5,90.5 C 422.833,90.5 423.167,90.5 423.5,90.5C 442.124,136.58 446.457,184.08 436.5,233C 436.836,234.03 437.503,234.53 438.5,234.5C 437.167,235.167 435.833,235.833 434.5,236.5C 422.792,239.51 411.126,242.677 399.5,246C 353.621,256.43 307.288,259.263 260.5,254.5C 280.123,244.699 299.123,233.866 317.5,222C 316.263,221.768 315.263,221.268 314.5,220.5C 342.378,213.649 368.711,217.483 393.5,232C 402.679,232.811 406.179,228.645 404,219.5C 396.333,201.328 389.167,182.995 382.5,164.5C 401.53,143.12 414.863,118.453 422.5,90.5 Z"/></g>
<g><path style="opacity:1" fill="#872c1b" d="M 209.5,218.5 C 186.388,215.188 164.721,219.688 144.5,232C 137,232.5 133.5,229 134,221.5C 138.572,209.361 143.405,197.361 148.5,185.5C 155.043,168.076 161.877,150.743 169,133.5C 172.728,129.215 177.228,128.382 182.5,131C 198.459,157.084 214.292,183.25 230,209.5C 231.202,213.793 230.035,217.293 226.5,220C 220.697,220.686 215.031,220.186 209.5,218.5 Z"/></g>
<g><path style="opacity:1" fill="#872c1b" d="M 382.5,164.5 C 389.167,182.995 396.333,201.328 404,219.5C 406.179,228.645 402.679,232.811 393.5,232C 368.711,217.483 342.378,213.649 314.5,220.5C 309.589,219.022 307.422,215.689 308,210.5C 323.873,183.249 340.373,156.415 357.5,130C 361.909,128.738 365.743,129.572 369,132.5C 373.428,143.308 377.928,153.975 382.5,164.5 Z"/></g>
<g><path style="opacity:1" fill="#f57d06" d="M 21.5,150.5 C 27.8149,151.313 34.1482,151.979 40.5,152.5C 40.5,152.833 40.5,153.167 40.5,153.5C 28.174,179.138 21.0073,206.138 19,234.5C 22.4265,244.135 29.2598,247.969 39.5,246C 46,244.833 49.8333,241 51,234.5C 54.483,208.557 61.983,183.891 73.5,160.5C 99.2303,166.632 124.23,174.966 148.5,185.5C 143.405,197.361 138.572,209.361 134,221.5C 133.5,229 137,232.5 144.5,232C 164.721,219.688 186.388,215.188 209.5,218.5C 208.262,218.81 208.262,219.31 209.5,220C 225.25,229.882 239.917,241.215 253.5,254C 241.148,253.141 228.815,251.808 216.5,250C 180.246,246.699 144.246,248.366 108.5,255C 67.7719,263.685 33.4386,283.185 5.5,313.5C 3.15553,301.763 1.15553,290.096 -0.5,278.5C -0.5,263.5 -0.5,248.5 -0.5,233.5C 2.30896,204.723 9.64229,177.056 21.5,150.5 Z"/></g>
<g><path style="opacity:1" fill="#f9b572" d="M 40.5,153.5 C 51.6064,154.988 62.6064,156.988 73.5,159.5C 73.5,159.833 73.5,160.167 73.5,160.5C 61.983,183.891 54.483,208.557 51,234.5C 49.8333,241 46,244.833 39.5,246C 29.2598,247.969 22.4265,244.135 19,234.5C 21.0073,206.138 28.174,179.138 40.5,153.5 Z"/></g>
<g><path style="opacity:0.997" fill="#f19721" d="M 507.5,205.5 C 508.759,214.981 510.093,224.314 511.5,233.5C 511.5,248.167 511.5,262.833 511.5,277.5C 505.793,332.649 485.127,381.316 449.5,423.5C 412.992,419.347 380.992,405.347 353.5,381.5C 383.474,358.934 405.808,330.268 420.5,295.5C 418.383,294.531 416.383,294.864 414.5,296.5C 423.178,277.633 430.178,258.133 435.5,238C 435.43,237.235 435.097,236.735 434.5,236.5C 435.833,235.833 437.167,235.167 438.5,234.5C 462.336,226.747 485.336,217.08 507.5,205.5 Z"/></g>
<g><path style="opacity:1" fill="#f57d06" d="M 256.5,257.5 C 256.938,257.435 257.272,257.601 257.5,258C 239.577,277.368 224.244,298.535 211.5,321.5C 206.532,313.599 203.532,304.932 202.5,295.5C 194.56,298.091 186.56,300.591 178.5,303C 170.553,304.383 162.553,305.216 154.5,305.5C 186.113,284.696 220.113,268.696 256.5,257.5 Z"/></g>
<g><path style="opacity:1" fill="#f57f07" d="M 279.5,293.5 C 272.167,293.5 264.833,293.5 257.5,293.5C 257.302,281.098 258.135,268.765 260,256.5C 266.511,268.856 273.011,281.189 279.5,293.5 Z"/></g>
<g><path style="opacity:1" fill="#ac501a" d="M 257.5,293.5 C 264.833,293.5 272.167,293.5 279.5,293.5C 286.354,293.176 293.021,293.509 299.5,294.5C 281.09,294.18 262.757,294.514 244.5,295.5C 248.373,293.57 252.706,292.903 257.5,293.5 Z"/></g>
<g><path style="opacity:1" fill="#872c1b" d="M 154.5,305.5 C 162.553,305.216 170.553,304.383 178.5,303C 186.56,300.591 194.56,298.091 202.5,295.5C 203.532,304.932 206.532,313.599 211.5,321.5C 217.07,332.738 225.403,341.405 236.5,347.5C 239.261,330.176 241.927,312.842 244.5,295.5C 262.757,294.514 281.09,294.18 299.5,294.5C 302.449,307.653 305.116,320.986 307.5,334.5C 307.857,339.313 308.857,343.98 310.5,348.5C 313.059,347.392 315.392,346.059 317.5,344.5C 322.092,341.414 326.258,337.747 330,333.5C 337.164,321.542 340.164,308.542 339,294.5C 344.593,298.546 350.759,301.379 357.5,303C 377.081,305.984 396.081,303.818 414.5,296.5C 416.383,294.864 418.383,294.531 420.5,295.5C 405.808,330.268 383.474,358.934 353.5,381.5C 328.795,397.623 301.795,406.957 272.5,409.5C 249.957,410.542 228.29,406.709 207.5,398C 198.623,393.729 189.956,389.229 181.5,384.5C 158.324,368.661 137.991,349.661 120.5,327.5C 112.683,317.21 105.349,306.543 98.5,295.5C 98.8333,295.167 99.1667,294.833 99.5,294.5C 116.927,302.652 135.26,306.319 154.5,305.5 Z"/></g>
<g><path style="opacity:1" fill="#f57c06" d="M 120.5,327.5 C 137.991,349.661 158.324,368.661 181.5,384.5C 178.388,393.281 176.055,402.281 174.5,411.5C 173.566,412.568 173.232,413.901 173.5,415.5C 135.493,409.916 99.1594,398.916 64.5,382.5C 80.4016,363.764 98.0683,346.931 117.5,332C 119.141,330.871 120.141,329.371 120.5,327.5 Z"/></g>
<g><path style="opacity:1" fill="#ed7809" d="M 307.5,334.5 C 310.548,338.215 313.881,341.548 317.5,344.5C 315.392,346.059 313.059,347.392 310.5,348.5C 308.857,343.98 307.857,339.313 307.5,334.5 Z"/></g>
<g><path style="opacity:0.995" fill="#f29822" d="M 22.5,361.5 C 36.0149,368.758 49.6815,375.758 63.5,382.5C 57.5936,389.317 51.927,396.317 46.5,403.5C 36.4763,390.773 28.4763,376.773 22.5,361.5 Z"/></g>
<g><path style="opacity:1" fill="#f47107" d="M 63.5,382.5 C 63.8333,382.5 64.1667,382.5 64.5,382.5C 99.1594,398.916 135.493,409.916 173.5,415.5C 168.239,443.254 169.905,470.587 178.5,497.5C 178.457,498.416 178.124,499.083 177.5,499.5C 123.061,482.041 79.3939,450.041 46.5,403.5C 51.927,396.317 57.5936,389.317 63.5,382.5 Z"/></g>
<g><path style="opacity:1" fill="#f37107" d="M 353.5,381.5 C 380.992,405.347 412.992,419.347 449.5,423.5C 412.238,465.973 365.904,493.307 310.5,505.5C 294.483,475.434 281.817,444.1 272.5,411.5C 272.5,410.833 272.5,410.167 272.5,409.5C 301.795,406.957 328.795,397.623 353.5,381.5 Z"/></g>
<g><path style="opacity:1" fill="#f2b62d" d="M 181.5,384.5 C 189.956,389.229 198.623,393.729 207.5,398C 228.29,406.709 249.957,410.542 272.5,409.5C 272.5,410.167 272.5,410.833 272.5,411.5C 272.423,412.75 271.756,413.583 270.5,414C 238.657,420.388 206.657,421.221 174.5,416.5C 174.5,414.833 174.5,413.167 174.5,411.5C 176.055,402.281 178.388,393.281 181.5,384.5 Z"/></g>
<g><path style="opacity:0.998" fill="#f29721" d="M 174.5,411.5 C 174.5,413.167 174.5,414.833 174.5,416.5C 206.657,421.221 238.657,420.388 270.5,414C 271.756,413.583 272.423,412.75 272.5,411.5C 281.817,444.1 294.483,475.434 310.5,505.5C 299.624,508.244 288.624,510.244 277.5,511.5C 262.833,511.5 248.167,511.5 233.5,511.5C 214.44,509.421 195.774,505.421 177.5,499.5C 178.124,499.083 178.457,498.416 178.5,497.5C 169.905,470.587 168.239,443.254 173.5,415.5C 173.232,413.901 173.566,412.568 174.5,411.5 Z"/></g>
</svg>
